<?xml version="1.0" encoding="UTF-8" standalone="no"?>
<!-- https://www.iconfinder.com/icons/7276560/egg_easter_spring_icon -->

<svg
   viewBox="0 0 58 58"
   version="1.1"
   id="svg7"
   sodipodi:docname="gundan.svg"
   width="58"
   height="58"
   inkscape:version="1.3 (0e150ed6c4, 2023-07-21)"
   xmlns:inkscape="http://www.inkscape.org/namespaces/inkscape"
   xmlns:sodipodi="http://sodipodi.sourceforge.net/DTD/sodipodi-0.dtd"
   xmlns="http://www.w3.org/2000/svg"
   xmlns:svg="http://www.w3.org/2000/svg">
  <sodipodi:namedview
     id="namedview7"
     pagecolor="#ffffff"
     bordercolor="#111111"
     borderopacity="1"
     inkscape:showpageshadow="0"
     inkscape:pageopacity="0"
     inkscape:pagecheckerboard="1"
     inkscape:deskcolor="#d1d1d1"
     inkscape:zoom="10.265625"
     inkscape:cx="31.951294"
     inkscape:cy="31.951294"
     inkscape:window-width="1920"
     inkscape:window-height="1052"
     inkscape:window-x="0"
     inkscape:window-y="28"
     inkscape:window-maximized="1"
     inkscape:current-layer="svg7" />
  <defs
     id="defs1">
    <style
       id="style1">.cls-1{fill:#f3f9ff;}.cls-2{fill:#cbdff5;}.cls-3{fill:#52bdff;}.cls-4{fill:#4aaae6;}.cls-5{fill:#ffef52;}.cls-6{fill:#ff5272;}.cls-7{fill:#e64a68;}.cls-8{fill:#1b212d;}</style>
  </defs>
  <g
     id="Egg"
     transform="translate(-2.9547208,-3.0308245)">
    <path
       class="cls-1"
       d="m 27.78,13.38 c -5.79,-3.29 -12,-4.71 -16.93,-1.86 -10.71,6.19 -7,27.6 -1.5,37.09 v 0 a 19.84,19.84 0 0 0 21.52,9.45 z"
       id="path7439-9" />
    <path
       class="cls-2"
       d="M 23.94,11.52 A 56.47,56.47 0 0 0 12.58,24.8 26,26 0 0 0 16.19,55.62 19.88,19.88 0 0 0 30.87,58.06 L 27.78,13.38 a 32.19,32.19 0 0 0 -3.84,-1.86 z"
       id="path9679" />
    <path
       class="cls-3"
       d="m 14.51,31.07 -1,2.85 -5.74,-1 -2,5.49 -0.22,0.39 a 40.34,40.34 0 0 0 3.81,9.84 19.66,19.66 0 0 0 6.43,6.75 l 0.69,-0.19 1.81,-5 5.71,-8.35 z"
       id="path7544-8" />
    <path
       class="cls-4"
       d="m 14.51,31.07 -1,2.85 -4,-0.71 a 26,26 0 0 0 6.42,22.11 l 0.54,-0.15 1.81,-5 5.72,-8.32 z"
       id="path9682" />
    <path
       class="cls-5"
       d="m 23.81,17 a 2.79,2.79 0 0 0 -0.36,-1 2.86,2.86 0 1 0 -2.64,4.28 z"
       id="path7528-8" />
    <path
       class="cls-5"
       d="M 8.42,24.66 A 2.86,2.86 0 1 0 9.47,20.75 2.86,2.86 0 0 0 8.42,24.66 Z"
       id="path7524-1" />
    <path
       class="cls-1"
       d="M 54.15,47.69 A 21.7,21.7 0 0 1 16.56,26 c 6,-10.38 24.23,-25.62 36,-18.86 11.77,6.76 7.58,30.17 1.59,40.55 z"
       id="path7364-0" />
    <path
       class="cls-2"
       d="m 49.77,6 c 10.13,7.69 6.14,29.71 0.38,39.7 a 21.72,21.72 0 0 1 -26.43,9.46 c 0.26,0.16 0.52,0.33 0.79,0.48 A 21.7,21.7 0 0 0 54.15,47.7 C 60.15,37.32 64.22,13.91 52.51,7.14 A 12.51,12.51 0 0 0 49.77,6 Z"
       id="path9666" />
    <circle
       class="cls-3"
       cx="24.379999"
       cy="30.4"
       id="path7377-4"
       r="3.1300001"
       transform="rotate(-60,24.384043,30.405599)" />
    <circle
       class="cls-3"
       cx="35.400002"
       cy="36.759998"
       id="circle7379-4"
       r="3.1300001"
       transform="rotate(-60,35.399886,36.765599)" />
    <circle
       class="cls-3"
       cx="46.419998"
       cy="43.130001"
       id="circle7383-4"
       r="3.1300001"
       transform="rotate(-60,46.415729,43.125599)" />
    <circle
       class="cls-3"
       cx="41.439999"
       cy="13.57"
       id="circle7392-4"
       r="3.1300001"
       transform="rotate(-60,41.446964,13.571752)" />
    <circle
       class="cls-3"
       cx="52.459999"
       cy="19.93"
       id="circle7394-7"
       r="3.1300001"
       transform="rotate(-60,52.462807,19.931752)" />
    <path
       class="cls-6"
       d="m 20.21,35.25 -6.55,1.06 a 21.85,21.85 0 0 0 0.27,4 l 3.72,-0.59 2.07,5.7 6,-1.06 2.03,5.64 6,-1.07 2.07,5.7 6,-1.06 1.08,3.61 a 21.31,21.31 0 0 0 3.49,-1.63 l -2,-6.41 -6,1.06 -2.06,-5.7 -6,1.06 -2.07,-5.69 -6,1.06 z"
       id="path7413-6" />
    <path
       class="cls-6"
       d="M 30.57,15.87 24.29,17 23.64,17.16 c -1.22,1.2 -2.34,2.43 -3.37,3.66 h 0.05 l 6.76,-1.2 2.34,6.46 6.76,-1.21 2.34,6.46 6.77,-1.2 2.33,6.46 6.77,-1.21 2.34,6.46 v 0 c 0.57,-1.56 1.09,-3.21 1.54,-4.94 -0.09,-0.17 -0.14,-0.3 -0.23,-0.47 l -2.17,-6 -6.28,1.12 -2.17,-6 -6.28,1.12 -2.17,-6 -6.27,1.12 z"
       id="path7419-3" />
    <path
       class="cls-7"
       d="m 55.91,30.5 -0.66,0.12 c -0.29,1.64 -0.64,3.26 -1.06,4.82 h 0.2 l 2.34,6.46 v 0 c 0.57,-1.56 1.09,-3.21 1.54,-4.94 -0.09,-0.17 -0.14,-0.3 -0.23,-0.47 z M 45.08,51.65 a 22.72,22.72 0 0 1 -3.26,2.2 l 1,3.35 a 21.31,21.31 0 0 0 3.49,-1.63 z"
       id="path9661" />
    <path
       class="cls-8"
       d="M 7.55,25.16 A 3.86,3.86 0 1 0 9,19.89 3.87,3.87 0 0 0 7.58,25.16 Z M 10,21.62 A 1.86,1.86 0 1 1 9.31,24.16 1.87,1.87 0 0 1 10,21.62 Z"
       id="path1" />
    <path
       class="cls-8"
       d="M 53,6.27 C 45.61,2 35.76,6 27.76,12.23 21,8.53 15,8 10.35,10.65 5.29,13.57 2.69,20 3,28.86 c 0.27,7 2.41,15 5.45,20.25 A 20.75,20.75 0 0 0 30.8,59.11 22.76,22.76 0 0 0 55,48.19 C 61.24,37.41 65.2,13.31 53,6.27 Z m -7,0.2 A 11.79,11.79 0 0 1 52,8 c 6.51,3.76 7.15,12.9 7,18 a 49.51,49.51 0 0 1 -0.9,7.53 L 56.88,30.14 A 1,1 0 0 0 55.76,29.5 l -5.45,1 -1.91,-5.22 a 1,1 0 0 0 -1.11,-0.64 l -5.45,1 L 40,20.41 a 1,1 0 0 0 -1.11,-0.65 l -5.45,1 -1.88,-5.2 A 1,1 0 0 0 30.44,14.92 L 26.9,15.55 A 48.41,48.41 0 0 1 32.92,11 C 36,9 41,6.47 46,6.47 Z M 56.74,39 55.33,35.11 a 1,1 0 0 0 -1.12,-0.64 l -5.93,1.06 -2.05,-5.67 A 1,1 0 0 0 45.11,29.21 L 39.18,30.27 37.12,24.6 A 1,1 0 0 0 36,23.91 L 30.07,25 28,19.3 a 1,1 0 0 0 -1.11,-0.65 l -4.08,0.73 c 0.45,-0.48 0.91,-0.95 1.37,-1.41 l 5.71,-1 1.89,5.21 a 1,1 0 0 0 1.11,0.64 l 5.45,-1 1.88,5.2 a 1,1 0 0 0 1.12,0.65 l 5.45,-1 1.9,5.33 a 1,1 0 0 0 1.12,0.64 l 5.44,-1 c 0,0 2,5.46 2,5.45 -0.15,0.62 -0.33,1.24 -0.51,1.91 z M 19.36,18.34 a 1.86,1.86 0 1 1 3.33,-1.64 c -0.82,0.81 -1.6,1.64 -2.33,2.46 a 1.92,1.92 0 0 1 -1,-0.82 z m -8,-5.95 c 4.73,-2.74 10.42,-1 14.73,1.21 -0.66,0.55 -1.29,1.11 -1.91,1.68 A 3.85,3.85 0 0 0 17.64,19.34 4,4 0 0 0 19,20.74 35.92,35.92 0 0 0 15.68,25.49 22.4,22.4 0 0 0 13,32.82 L 7.89,31.91 a 1,1 0 0 0 -1.12,0.64 l -1,2.72 C 4.15,26.17 4.91,16.11 11.35,12.39 Z M 43.61,55.8 42.68,53.25 A 1,1 0 0 0 41.57,52.6 l -5.14,0.92 -1.78,-4.91 A 1,1 0 0 0 33.54,48 L 28.4,48.91 26.62,44 A 1,1 0 0 0 25.51,43.35 L 20.37,44.27 18.6,39.34 A 1,1 0 0 0 17.48,38.7 l -2.67,0.47 a 17.69,17.69 0 0 1 -0.13,-1.92 l 4.88,-0.87 1.78,4.91 a 1,1 0 0 0 1.11,0.64 l 5.14,-0.93 1.78,4.9 a 1,1 0 0 0 1.11,0.65 l 5.14,-0.92 1.77,4.91 a 1,1 0 0 0 1.12,0.64 l 5.14,-0.91 1.69,4.73 c -0.57,0.26 -1.14,0.54 -1.73,0.8 z M 10.22,48.11 A 38.14,38.14 0 0 1 6.62,38.86 C 6.78,38.58 6.43,39.41 8.4,34.03 l 4.36,0.77 a 22.82,22.82 0 0 0 0.67,7.91 22.49,22.49 0 0 0 3.71,7.67 l -1.37,3.78 a 18.78,18.78 0 0 1 -5.55,-6.05 z m 7.29,7.14 1.11,-3.07 A 23,23 0 0 0 24,56.5 c 0.67,0.39 1.37,0.73 2.07,1 a 18.72,18.72 0 0 1 -8.56,-2.25 z m 23.2,1.58 a 20.48,20.48 0 0 1 -9.65,0.25 v 0 a 20.42,20.42 0 0 1 -6,-2.32 20.71,20.71 0 0 1 -9.65,-12.57 c -0.09,-0.34 -0.15,-0.69 -0.23,-1 l 1.82,-0.38 1.78,4.91 a 1,1 0 0 0 1.11,0.65 L 25,45.45 26.78,50.36 A 1,1 0 0 0 27.89,51 l 5.14,-0.91 1.8,4.91 a 1,1 0 0 0 1.12,0.65 l 5.14,-0.92 0.64,1.78 c -0.34,0.1 -0.67,0.23 -1.02,0.32 z m 12.57,-9.64 a 20.5,20.5 0 0 1 -6.2,6.69 L 45.24,48.82 A 1,1 0 0 0 44.13,48.17 L 39,49.09 37.22,44.18 A 1,1 0 0 0 36.11,43.54 L 31,44.45 29.22,39.54 A 1,1 0 0 0 28.11,38.9 l -5.14,0.92 -1.78,-4.91 A 1,1 0 0 0 20,34.27 l -5.31,0.94 a 20,20 0 0 1 2.7,-8.72 35.47,35.47 0 0 1 3.3,-4.7 l 5.7,-1 2.05,5.67 a 1,1 0 0 0 1.12,0.64 l 5.93,-1 2,5.66 a 1,1 0 0 0 1.12,0.65 l 5.93,-1.06 2,5.67 a 1,1 0 0 0 1.12,0.64 l 5.93,-1.05 2,5.44 a 35,35 0 0 1 -2.31,5.14 z"
       id="path2" />
    <path
       class="cls-8"
       d="M 26.44,26.83 A 4.13,4.13 0 1 0 28,32.47 4.12,4.12 0 0 0 26.44,26.83 Z m -0.22,4.64 a 2.13,2.13 0 1 1 -0.78,-2.91 2.13,2.13 0 0 1 0.78,2.91 z"
       id="path3" />
    <path
       class="cls-8"
       d="M 37.46,33.19 A 4.13,4.13 0 1 0 39,38.83 4.13,4.13 0 0 0 37.46,33.19 Z m -0.22,4.64 a 2.13,2.13 0 1 1 -0.78,-2.91 2.14,2.14 0 0 1 0.78,2.91 z"
       id="path4" />
    <path
       class="cls-8"
       d="M 48.48,39.55 A 4.13,4.13 0 1 0 50,45.19 4.13,4.13 0 0 0 48.48,39.55 Z m -0.22,4.64 a 2.13,2.13 0 1 1 -0.78,-2.9 2.14,2.14 0 0 1 0.78,2.9 z"
       id="path5" />
    <path
       class="cls-8"
       d="m 39.38,17.15 a 4.13,4.13 0 1 0 -1.51,-5.64 4.14,4.14 0 0 0 1.51,5.64 z m 0.22,-4.64 a 2.13,2.13 0 1 1 0.78,2.9 2.14,2.14 0 0 1 -0.78,-2.9 z"
       id="path6" />
    <path
       class="cls-8"
       d="m 50.4,23.51 a 4.13,4.13 0 1 0 -1.51,-5.64 4.13,4.13 0 0 0 1.51,5.64 z m 0.22,-4.64 a 2.13,2.13 0 1 1 0.78,2.9 2.13,2.13 0 0 1 -0.78,-2.9 z"
       id="path7" />
  </g>
</svg>
